<?xml version="1.0" encoding="UTF-8"?>
<!--Generator: Apple Native CoreSVG 341-->
<!DOCTYPE svg
PUBLIC "-//W3C//DTD SVG 1.1//EN"
       "http://www.w3.org/Graphics/SVG/1.1/DTD/svg11.dtd">
<svg version="1.1" xmlns="http://www.w3.org/2000/svg" xmlns:xlink="http://www.w3.org/1999/xlink" viewBox="0 0 230.125 230.125">
 <g>
  <path d="M39.25 230.125L190.875 230.125C217.125 230.125 230.125 217.25 230.125 191.5L230.125 38.75C230.125 13 217.125 0 190.875 0L39.25 0C13.125 0 0 13 0 38.75L0 191.5C0 217.25 13.125 230.125 39.25 230.125ZM39.5 210C27 210 20.125 203.375 20.125 190.375L20.125 39.875C20.125 26.875 27 20.125 39.5 20.125L190.625 20.125C203 20.125 210 26.875 210 39.875L210 190.375C210 203.375 203 210 190.625 210Z" fill="black" fill-opacity="1"/>
 </g>
</svg>
